<?xml version="1.0" encoding="utf-8"?>
<!-- Generator: Adobe Illustrator 16.0.0, SVG Export Plug-In . SVG Version: 6.00 Build 0)  -->
<!DOCTYPE svg PUBLIC "-//W3C//DTD SVG 1.1//EN" "http://www.w3.org/Graphics/SVG/1.1/DTD/svg11.dtd">
<svg version="1.1" id="Layer_1" xmlns="http://www.w3.org/2000/svg" xmlns:xlink="http://www.w3.org/1999/xlink" x="0px" y="0px"
	 width="64px" height="64px" viewBox="0 0 64 64" enable-background="new 0 0 64 64" xml:space="preserve">
<g>
	<path fill="#326ED1" d="M10.534,38.133V59.6H55.2V51.2c0-2.062-1.776-3.733-3.97-3.733s-3.972,1.672-3.972,3.733
		c0-2.062-1.775-3.733-3.969-3.733s-3.97,1.672-3.97,3.733c0-2.062-1.778-3.733-3.972-3.733c-2.191,0-3.97,1.672-3.97,3.733V34.4
		h4.963c1.097,0,1.985-0.836,1.985-1.867v-25.2c0-1.031-0.889-1.867-1.985-1.867H18.475c-1.097,0-1.985,0.835-1.985,1.867v25.2
		c0,1.031,0.888,1.867,1.985,1.867h4.963V54l-3.972-2.8v-4.667C19.466,41.894,15.468,38.133,10.534,38.133z M27.407,30.667
		c-1.097,0-1.984-0.835-1.984-1.867s0.888-1.866,1.984-1.866s1.986,0.835,1.986,1.866S28.504,30.667,27.407,30.667z M20.459,23.2
		v-14h13.897v14H20.459z"/>
	<path fill="#326ED1" d="M23.675,18.859l5.955-6.534l1.508,1.215l-5.957,6.533L23.675,18.859z"/>
	<path fill="#326ED1" d="M24.431,12.934h1.985V14.8h-1.985V12.934z"/>
	<path fill="#326ED1" d="M28.4,17.6h1.986v1.867H28.4V17.6z"/>
	<path fill="#326ED1" d="M41.304,21.333c1.095,0,1.986,0.837,1.986,1.867h1.985c0-2.059-1.782-3.733-3.972-3.733V21.333z"/>
	<path fill="#326ED1" d="M41.304,17.6c3.284,0,5.955,2.512,5.955,5.6h1.986c0-4.117-3.563-7.467-7.941-7.467V17.6z"/>
	<path fill="#326ED1" d="M51.23,23.2h1.986c0-6.176-5.345-11.2-11.913-11.2v1.867C46.777,13.867,51.23,18.054,51.23,23.2z"/>
</g>
</svg>
